<svg width="86" height="62" xmlns="http://www.w3.org/2000/svg">

 <g>
  <title>background</title>
  <rect fill="none" id="canvas_background" height="64" width="88" y="-1" x="-1"/>
 </g>
 <g>
  <title>Layer 1</title>
  <g id="svg_1">
   <g id="svg_2">
    <path canvas-opacity="1" stroke-width="0" id="svg_3" d="m20.201,2.4c5.317,0 9.529,1.538 12.875,4.702c3.315,3.138 4.926,7.226 4.926,12.498c0,2.408 -0.33,4.858 -0.982,7.28c-0.664,2.468 -2.238,6.343 -4.678,11.52l-9.96,21.2l-17.053,0l6.74,-22.782l0.482,-1.628l-1.529,-0.74c-2.766,-1.338 -4.845,-3.219 -6.354,-5.75c-1.504,-2.52 -2.267,-5.581 -2.267,-9.1c0,-5.274 1.611,-9.362 4.924,-12.497c3.346,-3.165 7.557,-4.703 12.876,-4.703m0,-2c-5.801,0 -10.551,1.751 -14.25,5.25c-3.701,3.502 -5.55,8.152 -5.55,13.95c0,3.9 0.849,7.275 2.55,10.125c1.699,2.85 4.1,5.025 7.2,6.525l-7.5,25.35l21,0l10.5,-22.35c2.498,-5.3 4.099,-9.249 4.799,-11.851c0.699,-2.599 1.051,-5.198 1.051,-7.8c0,-5.798 -1.852,-10.448 -5.551,-13.95c-3.7,-3.498 -8.45,-5.249 -14.249,-5.249l0,0z" fill="#5abced"/>
   </g>
   <g id="svg_4">
    <path id="svg_5" d="m65.798,2.4c5.317,0 9.529,1.538 12.875,4.702c3.315,3.138 4.926,7.226 4.926,12.498c0,2.408 -0.33,4.858 -0.982,7.28c-0.664,2.468 -2.238,6.343 -4.678,11.52l-9.96,21.2l-17.052,0l6.74,-22.782l0.482,-1.629l-1.529,-0.739c-2.767,-1.338 -4.845,-3.219 -6.355,-5.75c-1.504,-2.519 -2.266,-5.58 -2.266,-9.1c0,-5.274 1.611,-9.362 4.923,-12.497c3.346,-3.165 7.558,-4.703 12.876,-4.703m0,-2c-5.801,0 -10.551,1.751 -14.25,5.25c-3.7,3.502 -5.549,8.152 -5.549,13.95c0,3.9 0.848,7.275 2.549,10.125c1.699,2.85 4.1,5.025 7.201,6.525l-7.5,25.35l21,0l10.5,-22.35c2.498,-5.3 4.099,-9.249 4.799,-11.851c0.699,-2.599 1.051,-5.198 1.051,-7.8c0,-5.798 -1.852,-10.448 -5.551,-13.95c-3.7,-3.498 -8.451,-5.249 -14.25,-5.249l0,0z" fill="#5abced"/>
   </g>
  </g>
 </g>
</svg>